<svg width="665" height="196" viewBox="0 0 665 196" fill="none" xmlns="http://www.w3.org/2000/svg">
<g clip-path="url(#clip0_62_2)" filter="url(#filter0_i_62_2)">
<g filter="url(#filter1_d_62_2)">
<path d="M189.859 5.74148C186.324 2.1935 181.431 0 176.03 0C170.629 0 165.737 2.1935 162.202 5.74148C158.662 9.28946 156.473 14.1864 156.473 19.5989V98C156.473 103.412 154.284 108.315 150.743 111.857C147.208 115.405 142.316 117.599 136.915 117.599C137.085 117.599 137.254 117.599 137.418 117.604H58.1753C58.3394 117.599 58.5091 117.599 58.6787 117.599C47.8766 117.599 39.121 108.825 39.121 98C39.121 92.5875 41.3099 87.6851 44.8504 84.1426C48.3909 80.5946 53.2776 78.4011 58.6787 78.4011C64.0798 78.4011 68.9665 76.2076 72.507 72.6596C76.0475 69.1171 78.2364 64.2146 78.2364 58.8022C78.2364 53.3897 80.4253 48.4873 83.9658 44.9393C87.5063 41.3913 92.393 39.1978 97.7941 39.1978C103.195 39.1978 108.087 37.0043 111.628 33.4563C115.168 29.9083 117.357 25.0114 117.357 19.5989C117.357 14.1864 115.168 9.28946 111.628 5.74148C108.087 2.1935 103.195 0 97.7941 0C92.393 0 87.5063 2.1935 83.9658 5.74148C80.4253 9.28946 78.2364 14.1864 78.2364 19.5989C78.2364 25.0114 76.0475 29.9083 72.507 33.4563C68.9665 37.0043 64.0798 39.1978 58.6787 39.1978C53.2776 39.1978 48.3909 41.3913 44.8504 44.9393C41.3099 48.4873 39.121 53.3897 39.121 58.8022C39.121 64.2146 36.9321 69.1171 33.3916 72.6596C29.8511 76.2076 24.9644 78.4011 19.5633 78.4011C14.1622 78.4011 9.27008 80.5946 5.73502 84.1426C2.1945 87.6851 0.00561523 92.5875 0.00561523 98C0.00561523 108.825 8.76116 117.599 19.5633 117.599C19.733 117.599 19.9026 117.599 20.0668 117.604C25.2708 117.736 29.966 119.902 33.3971 123.34C36.9376 126.883 39.1265 131.785 39.1265 137.198C39.1265 148.023 47.882 156.802 58.6842 156.802H136.92C142.322 156.802 147.214 158.996 150.749 162.544C154.289 166.092 156.478 170.989 156.478 176.401C156.478 187.226 165.234 196 176.036 196C181.437 196 186.329 193.806 189.864 190.259C193.405 186.711 195.594 181.814 195.594 176.401V19.5989C195.594 14.1864 193.405 9.28946 189.864 5.74148H189.859ZM175.527 117.604C175.691 117.599 175.861 117.599 176.03 117.599C176.2 117.599 176.37 117.599 176.534 117.604H175.527Z" fill="url(#paint0_linear_62_2)"/>
</g>
<path d="M424.567 44.9448C421.032 41.3968 416.14 39.2033 410.739 39.2033C399.937 39.2033 391.181 30.4238 391.181 19.5989C391.181 14.1864 388.992 9.28946 385.452 5.74148C381.911 2.1935 377.019 0 371.618 0H293.382C287.981 0 283.089 2.1935 279.554 5.74148C276.013 9.28946 273.824 14.1864 273.824 19.5989C273.824 25.0114 271.635 29.9083 268.095 33.4563C264.56 37.0043 259.668 39.1978 254.266 39.1978C248.865 39.1978 243.973 41.3913 240.438 44.9393C236.898 48.4873 234.709 53.3897 234.709 58.8022V137.203C234.709 148.028 243.464 156.802 254.266 156.802C259.668 156.802 264.56 158.996 268.095 162.544C271.635 166.092 273.824 170.989 273.824 176.401C273.824 187.226 282.58 196 293.382 196H371.618C377.019 196 381.906 193.806 385.446 190.259C388.987 186.711 391.176 181.814 391.176 176.401C391.176 170.989 393.365 166.092 396.905 162.544C400.446 158.996 405.338 156.802 410.739 156.802C416.14 156.802 421.032 154.609 424.567 151.061C428.108 147.513 430.297 142.616 430.297 137.203V58.8022C430.297 53.3897 428.108 48.4873 424.567 44.9448ZM253.763 117.604C253.927 117.599 254.097 117.599 254.266 117.599C254.436 117.599 254.606 117.599 254.77 117.604H253.763ZM391.181 78.4011H391.176V137.203C391.176 142.616 388.987 147.513 385.446 151.061C381.906 154.609 377.019 156.802 371.618 156.802H293.382C282.58 156.802 273.824 148.028 273.824 137.203V58.8022C273.824 53.3897 276.013 48.4873 279.554 44.9393C283.089 41.3913 287.981 39.1978 293.382 39.1978H352.06L371.618 39.2033C377.019 39.2033 381.911 41.3968 385.452 44.9448C388.992 48.4873 391.181 53.3897 391.181 58.8022V78.4011ZM411.242 117.604H410.236C410.4 117.599 410.569 117.599 410.739 117.599C410.909 117.599 411.078 117.599 411.242 117.604Z" fill="url(#paint1_linear_62_2)"/>
<path d="M659.271 5.74148C655.735 2.1935 650.843 0 645.442 0C640.041 0 635.149 2.1935 631.614 5.74148C628.073 9.28946 625.885 14.1864 625.885 19.5989V98C625.885 103.412 623.696 108.315 620.155 111.857C616.62 115.405 611.728 117.599 606.327 117.599C606.496 117.599 606.666 117.599 606.83 117.604H527.587C527.751 117.599 527.921 117.599 528.091 117.599C517.288 117.599 508.533 108.825 508.533 98C508.533 92.5875 510.722 87.6851 514.262 84.1426C517.803 80.5946 522.689 78.4011 528.091 78.4011C533.492 78.4011 538.378 76.2076 541.919 72.6596C545.459 69.1171 547.648 64.2146 547.648 58.8022C547.648 53.3897 549.837 48.4873 553.378 44.9393C556.918 41.3913 561.805 39.1978 567.206 39.1978C572.607 39.1978 577.499 37.0043 581.04 33.4563C584.58 29.9083 586.769 25.0114 586.769 19.5989C586.769 14.1864 584.58 9.28946 581.04 5.74148C577.499 2.1935 572.607 0 567.206 0C561.805 0 556.918 2.1935 553.378 5.74148C549.837 9.28946 547.648 14.1864 547.648 19.5989C547.648 25.0114 545.459 29.9083 541.919 33.4563C538.378 37.0043 533.492 39.1978 528.091 39.1978C522.689 39.1978 517.803 41.3913 514.262 44.9393C510.722 48.4873 508.533 53.3897 508.533 58.8022C508.533 64.2146 506.344 69.1171 502.803 72.6596C499.263 76.2076 494.376 78.4011 488.975 78.4011C483.574 78.4011 478.682 80.5946 475.147 84.1426C471.606 87.6851 469.417 92.5875 469.417 98C469.417 108.825 478.173 117.599 488.975 117.599C489.145 117.599 489.314 117.599 489.479 117.604C494.683 117.736 499.378 119.902 502.809 123.34C506.349 126.883 508.538 131.785 508.538 137.198C508.538 148.023 517.294 156.802 528.096 156.802H606.332C611.733 156.802 616.626 158.996 620.161 162.544C623.701 166.092 625.89 170.989 625.89 176.401C625.89 187.226 634.646 196 645.448 196C650.849 196 655.741 193.806 659.276 190.259C662.817 186.711 665.005 181.814 665.005 176.401V19.5989C665.005 14.1864 662.817 9.28946 659.276 5.74148H659.271ZM644.939 117.604C645.103 117.599 645.273 117.599 645.442 117.599C645.612 117.599 645.782 117.599 645.946 117.604H644.939Z" fill="url(#paint2_linear_62_2)"/>
</g>
<defs>
<filter id="filter0_i_62_2" x="0" y="0" width="671" height="200" filterUnits="userSpaceOnUse" color-interpolation-filters="sRGB">
<feFlood flood-opacity="0" result="BackgroundImageFix"/>
<feBlend mode="normal" in="SourceGraphic" in2="BackgroundImageFix" result="shape"/>
<feColorMatrix in="SourceAlpha" type="matrix" values="0 0 0 0 0 0 0 0 0 0 0 0 0 0 0 0 0 0 127 0" result="hardAlpha"/>
<feOffset dx="6" dy="4"/>
<feGaussianBlur stdDeviation="6.7"/>
<feComposite in2="hardAlpha" operator="arithmetic" k2="-1" k3="1"/>
<feColorMatrix type="matrix" values="0 0 0 0 0.901961 0 0 0 0 0.94902 0 0 0 0 0.929412 0 0 0 0.25 0"/>
<feBlend mode="normal" in2="shape" result="effect1_innerShadow_62_2"/>
</filter>
<filter id="filter1_d_62_2" x="-7.99438" y="0" width="203.588" height="196" filterUnits="userSpaceOnUse" color-interpolation-filters="sRGB">
<feFlood flood-opacity="0" result="BackgroundImageFix"/>
<feColorMatrix in="SourceAlpha" type="matrix" values="0 0 0 0 0 0 0 0 0 0 0 0 0 0 0 0 0 0 127 0" result="hardAlpha"/>
<feOffset dx="-8"/>
<feComposite in2="hardAlpha" operator="out"/>
<feColorMatrix type="matrix" values="0 0 0 0 0.0392157 0 0 0 0 0.0588235 0 0 0 0 0.0509804 0 0 0 0.25 0"/>
<feBlend mode="normal" in2="BackgroundImageFix" result="effect1_dropShadow_62_2"/>
<feBlend mode="normal" in="SourceGraphic" in2="effect1_dropShadow_62_2" result="shape"/>
</filter>
<linearGradient id="paint0_linear_62_2" x1="0.00561523" y1="98" x2="195.594" y2="98" gradientUnits="userSpaceOnUse">
<stop stop-color="#2CFF9C"/>
<stop offset="1" stop-color="#0B3D2E"/>
</linearGradient>
<linearGradient id="paint1_linear_62_2" x1="234.709" y1="98" x2="430.297" y2="98" gradientUnits="userSpaceOnUse">
<stop stop-color="#2CFF9C"/>
<stop offset="1" stop-color="#0B3D2E"/>
</linearGradient>
<linearGradient id="paint2_linear_62_2" x1="469.417" y1="98" x2="665.005" y2="98" gradientUnits="userSpaceOnUse">
<stop stop-color="#2CFF9C"/>
<stop offset="1" stop-color="#0B3D2E"/>
</linearGradient>
<clipPath id="clip0_62_2">
<rect width="665" height="196" fill="white"/>
</clipPath>
</defs>
</svg>
